<svg version="1.1" id="Layer_1" xmlns="http://www.w3.org/2000/svg" xmlns:xlink="http://www.w3.org/1999/xlink" x="0px" y="0px"
	 width="100%" viewBox="0 0 512 512" enable-background="new 0 0 512 512" xml:space="preserve">
<path fill="#FDFDFD" opacity="1.000000" stroke="none" 
	d="
M513.000000,11.999998 
	C513.000000,175.358231 513.000000,338.716461 512.694946,502.277893 
	C509.564636,505.489349 506.720001,508.480072 503.948975,511.537537 
	C503.714081,511.796753 503.971375,512.501953 504.000000,513.000000 
	C339.641754,513.000000 175.283524,513.000000 10.692138,512.685669 
	C7.306000,509.580902 4.153001,506.790436 1.000001,504.000000 
	C1.000000,339.975098 1.000000,175.950180 1.289567,11.737341 
	C4.928964,7.272331 8.597315,3.471440 14.361065,2.602117 
	C14.648062,2.558830 14.790338,1.556025 15.000000,1.000000 
	C176.024902,1.000000 337.049805,1.000000 498.192322,1.287713 
	C503.823730,4.189240 509.177063,7.007074 512.338623,12.611107 
	C512.559082,12.407403 512.779541,12.203700 513.000000,11.999998 
M301.152832,7.959251 
	C299.087524,8.018055 297.022247,8.076859 294.031097,8.022433 
	C203.045044,8.016426 112.058975,8.007387 21.072918,8.008739 
	C11.121515,8.008886 8.004658,11.160362 8.004628,21.110945 
	C8.004165,178.920242 8.004285,336.729553 8.004691,494.538849 
	C8.004695,495.871948 7.981637,497.205872 8.018984,498.537994 
	C8.135647,502.699280 10.327609,505.539795 14.127938,506.768646 
	C16.600864,507.568237 19.337387,507.856079 21.956104,507.857544 
	C116.275047,507.909973 210.594025,507.902435 304.912994,507.894623 
	C306.575928,507.894501 308.238861,507.789001 310.768616,507.911438 
	C313.885681,507.862000 317.002777,507.812561 321.102936,507.873901 
	C378.259918,507.883148 435.416931,507.904175 492.573914,507.889709 
	C501.819824,507.887390 505.158569,504.479004 505.158630,495.302002 
	C505.160004,336.828369 505.160278,178.354736 505.157196,19.881113 
	C505.157013,11.535544 501.815857,8.094701 493.488159,8.020555 
	C485.323517,7.947862 477.157684,7.999951 468.992371,8.005032 
	C413.336609,8.039660 357.680847,8.076336 301.152832,7.959251 
z"/>
<path fill="#1C1C1C" opacity="1.000000" stroke="none" 
	d="
M513.000000,11.517042 
	C512.779541,12.203700 512.559082,12.407403 512.338623,12.611107 
	C509.177063,7.007074 503.823730,4.189240 498.654968,1.287713 
	C503.577911,1.000000 508.155853,1.000000 513.000000,1.000000 
	C513.000000,4.340136 513.000000,7.687112 513.000000,11.517042 
z"/>
<path fill="#1C1C1C" opacity="1.000000" stroke="none" 
	d="
M14.525873,1.000000 
	C14.790338,1.556025 14.648062,2.558830 14.361065,2.602117 
	C8.597315,3.471440 4.928964,7.272331 1.289567,11.274702 
	C1.000000,7.730249 1.000000,4.460499 1.000000,1.000000 
	C5.349427,1.000000 9.700585,1.000000 14.525873,1.000000 
z"/>
<path fill="#232323" opacity="1.000000" stroke="none" 
	d="
M504.491058,513.000000 
	C503.971375,512.501953 503.714081,511.796753 503.948975,511.537537 
	C506.720001,508.480072 509.564636,505.489349 512.694946,502.740540 
	C513.000000,506.246460 513.000000,509.492920 513.000000,513.000000 
	C510.330292,513.000000 507.656219,513.000000 504.491058,513.000000 
z"/>
<path fill="#262626" opacity="1.000000" stroke="none" 
	d="
M1.000001,504.491058 
	C4.153001,506.790436 7.306000,509.580902 10.229500,512.685669 
	C7.082648,513.000000 4.165297,513.000000 1.000000,513.000000 
	C1.000000,510.330017 1.000000,507.656067 1.000001,504.491058 
z"/>
<path fill="#1A1B1A" opacity="1.000000" stroke="none" 
	d="
M309.901794,507.732635 
	C308.238861,507.789001 306.575928,507.894501 304.912994,507.894623 
	C210.594025,507.902435 116.275047,507.909973 21.956104,507.857544 
	C19.337387,507.856079 16.600864,507.568237 14.127938,506.768646 
	C10.327609,505.539795 8.135647,502.699280 8.018984,498.537994 
	C7.981637,497.205872 8.004695,495.871948 8.004691,494.538849 
	C8.004285,336.729553 8.004165,178.920242 8.004628,21.110945 
	C8.004658,11.160362 11.121515,8.008886 21.072918,8.008739 
	C112.058975,8.007387 203.045044,8.016426 294.540253,8.536863 
	C295.061096,14.206923 294.853699,19.375460 295.156372,24.513948 
	C295.383392,28.367561 293.882172,29.378187 290.256378,29.240114 
	C283.779541,28.993471 277.274200,28.953384 270.807922,29.313929 
	C268.957916,29.417080 267.201447,31.196884 265.402069,32.207886 
	C267.161133,33.103939 268.888947,34.691872 270.684845,34.773067 
	C277.489929,35.080757 284.320007,35.016880 291.134766,34.849819 
	C294.221985,34.774143 295.224640,35.942318 295.130981,38.932209 
	C294.964447,44.249012 294.868652,49.589264 295.216431,54.888653 
	C295.328094,56.590302 296.755280,59.446003 297.884491,59.604179 
	C301.066772,60.049950 301.846893,57.447067 301.829376,54.649544 
	C301.797150,49.493992 301.970795,44.332382 301.771881,39.184380 
	C301.646851,35.948627 302.766846,34.750481 306.052216,34.846169 
	C312.532959,35.034924 319.035706,35.121025 325.501465,34.755787 
	C327.344513,34.651680 329.091492,32.846226 330.882507,31.820942 
	C329.150116,30.939415 327.449982,29.381842 325.679596,29.297453 
	C319.207886,28.988960 312.709961,29.057219 306.227753,29.218664 
	C303.135468,29.295681 301.615845,28.491796 301.774658,25.061209 
	C302.035736,19.419811 301.959259,13.762787 302.025085,8.112350 
	C357.680847,8.076336 413.336609,8.039660 468.992371,8.005032 
	C477.157684,7.999951 485.323517,7.947862 493.488159,8.020555 
	C501.815857,8.094701 505.157013,11.535544 505.157196,19.881113 
	C505.160278,178.354736 505.160004,336.828369 505.158630,495.302002 
	C505.158569,504.479004 501.819824,507.887390 492.573914,507.889709 
	C435.416931,507.904175 378.259918,507.883148 320.789459,507.364777 
	C322.855713,496.065521 325.287567,485.286469 327.588318,474.479523 
	C328.454376,470.411469 330.488831,468.658020 334.874329,468.961365 
	C340.338135,469.339264 345.874664,469.295746 351.326843,468.822906 
	C352.940826,468.682983 354.375885,466.479553 355.892944,465.221680 
	C354.561768,464.086792 353.295319,462.859772 351.869934,461.859222 
	C351.238007,461.415649 350.281281,461.247559 349.477997,461.263184 
	C336.028564,461.524475 322.564911,461.548981 309.138275,462.262970 
	C303.061646,462.586121 295.275726,471.284332 294.175781,478.852570 
	C296.702942,477.517578 298.854004,476.954071 300.171692,475.587158 
	C306.242004,469.290131 313.832214,469.183899 322.650177,469.293671 
	C320.671082,474.918121 318.865601,479.784912 317.246063,484.712799 
	C314.731476,492.364227 312.343475,500.057251 309.901794,507.732635 
M237.577087,227.867126 
	C238.025818,227.227005 238.474548,226.586899 238.992538,225.991394 
	C238.992538,225.991394 238.946304,225.923187 239.630569,225.893387 
	C240.748978,224.592331 241.867386,223.291260 243.000000,222.000000 
	C243.000000,222.000000 242.990311,221.985794 243.628098,221.923187 
	C244.085403,221.282623 244.542709,220.642059 245.445969,219.508896 
	C247.615479,217.314285 249.785004,215.119690 252.627457,212.902740 
	C253.413193,211.932205 254.198929,210.961670 255.490601,209.634064 
	C256.301178,208.710831 257.111725,207.787582 258.568604,206.855377 
	C258.993866,206.212021 259.419159,205.568665 260.245789,204.498917 
	C260.811462,203.962067 261.377136,203.425201 262.626221,202.878906 
	C263.736328,201.577087 264.846466,200.275284 266.528564,198.616058 
	C270.336426,194.714767 274.144318,190.813492 278.552155,186.783447 
	C279.742371,186.747177 280.932556,186.710922 282.525970,186.882889 
	C282.525970,186.882889 282.953766,187.034256 283.065369,187.666779 
	C283.743286,188.035431 284.421173,188.404083 285.719177,189.098404 
	C288.013641,190.321823 290.308075,191.545227 292.914337,193.255875 
	C296.917267,193.507172 295.964478,191.226410 295.165588,188.218292 
	C295.238373,186.935013 295.311157,185.651749 295.923523,184.071640 
	C296.298157,182.713074 296.672760,181.354492 297.159332,179.341797 
	C297.233734,178.682526 297.308136,178.023270 297.948608,177.018677 
	C298.451141,175.621750 298.953674,174.224823 299.660797,172.222763 
	C299.702850,171.800217 299.744934,171.377686 300.423950,170.701172 
	C300.753357,169.738968 301.082733,168.776764 301.634552,167.216599 
	C301.680542,166.795105 301.726532,166.373611 302.405670,165.692917 
	C302.768372,164.737091 303.131073,163.781265 303.754150,162.127365 
	C305.190338,159.112076 306.626556,156.096771 308.736053,152.915390 
	C309.109558,152.597809 309.693207,152.349777 309.824829,151.952118 
	C311.565247,146.694397 314.235840,146.699844 319.183594,148.768509 
	C336.606354,156.053070 353.515747,155.102142 368.777283,142.993057 
	C383.742279,131.119247 385.629578,110.151863 372.794769,96.494652 
	C358.531219,81.317139 336.843231,78.668854 319.143768,86.827766 
	C306.178497,92.804352 297.599060,102.865395 297.236725,117.967659 
	C297.022797,126.883354 301.079102,134.340942 307.243103,140.517944 
	C309.773102,143.053314 310.811066,145.041214 307.175171,147.813614 
	C306.813904,147.945251 306.452606,148.076904 305.455078,148.147964 
	C304.909485,148.716019 304.363892,149.284073 303.154449,150.019730 
	C301.153107,151.154755 299.151733,152.289780 296.523682,153.274750 
	C295.980713,153.822540 295.437714,154.370316 294.210205,155.047104 
	C292.520020,155.822861 290.829865,156.598602 288.520782,157.228867 
	C287.938782,157.754135 287.356750,158.279388 286.203369,158.893631 
	C285.836884,159.011642 285.470398,159.129654 284.386719,159.169464 
	C282.870789,160.069763 281.354858,160.970062 279.154968,161.965317 
	C278.491821,162.150543 277.828705,162.335770 276.558380,162.306503 
	C275.978058,162.819946 275.397766,163.333405 274.036743,163.936188 
	C268.832336,165.416275 263.627899,166.896362 257.018585,168.775986 
	C262.136627,172.657059 266.214386,175.749298 271.531891,179.781647 
	C267.959473,182.814896 264.837402,185.077148 262.176971,187.791824 
	C250.664932,199.538620 239.287872,211.417709 227.154099,222.868912 
	C224.366425,221.480560 221.560638,220.127319 218.793900,218.698425 
	C190.752029,204.216125 161.288773,199.875900 130.264908,206.006531 
	C100.803185,211.828461 75.865379,225.249741 57.529167,249.475983 
	C40.400276,272.107056 35.471207,297.629333 42.733784,324.845734 
	C48.445942,346.251923 61.580730,363.166412 79.601326,375.932953 
	C111.471291,398.511078 146.776169,405.364563 184.841675,397.194489 
	C219.346100,389.788757 246.661896,372.030304 264.652496,340.618317 
	C269.655518,341.852966 274.658508,343.087585 279.938782,344.892731 
	C280.669800,345.136139 281.400818,345.379547 282.834167,345.825531 
	C283.799286,345.963104 284.764374,346.100708 285.972168,346.830109 
	C286.701111,347.042511 287.430054,347.254883 288.768768,347.664337 
	C289.192902,347.704803 289.617035,347.745239 290.341156,348.331085 
	C291.565765,348.594238 292.790344,348.857391 294.559296,349.220093 
	C294.925995,349.259430 295.292664,349.298737 296.008881,349.914795 
	C297.032806,350.210632 298.056702,350.506439 299.735596,350.971558 
	C300.406311,351.056458 301.077026,351.141357 302.043884,351.842499 
	C303.069214,352.117889 304.094513,352.393311 305.819916,352.864655 
	C306.779633,353.000885 307.739380,353.137115 308.956085,353.856506 
	C309.688019,354.076294 310.419922,354.296082 311.761932,354.706573 
	C312.184906,354.749542 312.607880,354.792511 313.341644,355.369690 
	C314.567657,355.635468 315.793701,355.901245 317.557037,356.257141 
	C317.918335,356.293091 318.279633,356.329071 318.964355,356.898163 
	C319.688782,357.135193 320.413177,357.372223 321.827484,357.844116 
	C322.788605,357.985260 323.749695,358.126404 325.027802,358.877869 
	C325.741638,360.275635 326.455444,361.673401 326.984680,363.701965 
	C326.879089,364.350311 326.773529,364.998657 326.039032,365.925995 
	C324.858673,367.796844 323.191833,369.529968 322.613953,371.571350 
	C321.784271,374.502258 323.200317,375.511932 326.627716,373.911072 
	C327.047699,373.836975 327.467651,373.762909 328.608948,373.893433 
	C329.856262,373.380402 331.103607,372.867371 333.124237,372.330902 
	C334.412781,372.246490 335.701355,372.162079 337.576904,372.549133 
	C341.705841,371.977753 345.834778,371.406342 350.900543,370.907990 
	C356.278809,370.881500 361.657043,370.855042 367.575928,371.433594 
	C372.625427,372.045380 377.674927,372.657166 383.205139,373.327179 
	C382.911835,375.309174 382.697754,376.901093 382.438385,378.485626 
	C380.611542,389.646942 383.622467,399.637177 391.948853,406.943878 
	C407.449249,420.546143 425.274933,423.703308 444.215729,414.850616 
	C456.628479,409.048950 465.290955,399.644775 465.816833,385.076416 
	C466.310669,371.395508 459.004150,361.981812 447.916595,355.002655 
	C439.082703,349.442078 429.310791,348.276550 419.190826,349.067993 
	C406.113525,350.090729 395.070526,355.187988 387.625183,366.330933 
	C385.455292,369.578461 383.433380,370.648315 379.627380,368.872009 
	C379.627380,368.872009 379.244690,368.793701 379.028809,368.198151 
	C378.335754,367.834686 377.642670,367.471222 376.398071,366.879150 
	C375.710266,366.482910 375.022461,366.086670 374.046539,365.091522 
	C372.343658,364.105804 370.640747,363.120087 368.328491,361.842255 
	C359.446136,354.151855 350.520203,346.510773 341.714386,338.733673 
	C339.708466,336.962067 338.499603,336.725830 337.193817,339.349152 
	C335.392212,342.968567 334.134827,348.391815 331.257843,349.526306 
	C328.174194,350.742310 323.481995,347.883392 319.494141,346.794250 
	C319.175201,346.707123 318.881958,346.528259 318.564484,346.433167 
	C301.725555,341.390472 284.885284,336.352173 268.304047,330.485657 
	C268.709747,329.052521 269.068848,327.604309 269.528381,326.188660 
	C273.565399,313.751953 274.085449,300.865448 271.994812,288.254425 
	C268.028015,264.326050 255.237732,245.334213 236.807281,229.527573 
	C236.835770,228.993851 236.864273,228.460129 236.966324,227.971786 
	C236.966324,227.971786 236.929092,227.893799 237.577087,227.867126 
M226.502594,43.044437 
	C222.172989,43.050690 217.830490,43.273518 213.516510,43.017036 
	C205.154877,42.519905 194.310394,52.272800 193.574875,59.282070 
	C197.348297,59.947254 197.459396,60.050873 200.674271,56.604012 
	C206.613998,50.235714 213.918915,50.440327 222.100082,51.432079 
	C218.081024,62.453499 214.485031,72.942711 210.384171,83.230682 
	C208.884384,86.993233 208.837936,89.726982 212.659393,91.499565 
	C215.544357,92.837753 219.102280,90.234444 220.076477,86.167618 
	C222.430206,76.341667 224.733505,66.502785 226.942627,56.643459 
	C227.794373,52.842068 229.137634,50.387947 233.853851,50.830818 
	C238.970673,51.311314 244.221619,51.365837 249.305893,50.734619 
	C251.581512,50.452103 253.593246,48.044174 255.724731,46.600765 
	C253.644104,45.419121 251.615891,43.344051 249.473297,43.218346 
	C242.171158,42.789928 234.828735,43.048317 226.502594,43.044437 
M413.494568,453.018524 
	C417.159332,453.016724 420.851501,453.278748 424.477234,452.901642 
	C426.285980,452.713531 427.973145,451.356201 429.715302,450.527740 
	C428.017822,449.685760 426.328094,448.130768 424.621674,448.112213 
	C407.799072,447.929260 390.973694,447.998627 374.149109,448.008514 
	C373.153168,448.009094 371.991211,447.814240 371.205902,448.249908 
	C370.339752,448.730530 369.456909,449.766296 369.283569,450.691772 
	C369.178955,451.250244 370.293365,452.420929 371.068756,452.672058 
	C372.292358,453.068359 373.691345,452.993134 375.016296,452.995514 
	C387.509766,453.017975 400.003265,453.014557 413.494568,453.018524 
z"/>
<path fill="#547659" opacity="1.000000" stroke="none" 
	d="
M310.335205,507.822021 
	C312.343475,500.057251 314.731476,492.364227 317.246063,484.712799 
	C318.865601,479.784912 320.671082,474.918121 322.650177,469.293671 
	C313.832214,469.183899 306.242004,469.290131 300.171692,475.587158 
	C298.854004,476.954071 296.702942,477.517578 294.175781,478.852570 
	C295.275726,471.284332 303.061646,462.586121 309.138275,462.262970 
	C322.564911,461.548981 336.028564,461.524475 349.477997,461.263184 
	C350.281281,461.247559 351.238007,461.415649 351.869934,461.859222 
	C353.295319,462.859772 354.561768,464.086792 355.892944,465.221680 
	C354.375885,466.479553 352.940826,468.682983 351.326843,468.822906 
	C345.874664,469.295746 340.338135,469.339264 334.874329,468.961365 
	C330.488831,468.658020 328.454376,470.411469 327.588318,474.479523 
	C325.287567,485.286469 322.855713,496.065521 320.297913,507.309387 
	C317.002777,507.812561 313.885681,507.862000 310.335205,507.822021 
z"/>
<path fill="#537457" opacity="1.000000" stroke="none" 
	d="
M301.588989,8.035801 
	C301.959259,13.762787 302.035736,19.419811 301.774658,25.061209 
	C301.615845,28.491796 303.135468,29.295681 306.227753,29.218664 
	C312.709961,29.057219 319.207886,28.988960 325.679596,29.297453 
	C327.449982,29.381842 329.150116,30.939415 330.882507,31.820942 
	C329.091492,32.846226 327.344513,34.651680 325.501465,34.755787 
	C319.035706,35.121025 312.532959,35.034924 306.052216,34.846169 
	C302.766846,34.750481 301.646851,35.948627 301.771881,39.184380 
	C301.970795,44.332382 301.797150,49.493992 301.829376,54.649544 
	C301.846893,57.447067 301.066772,60.049950 297.884491,59.604179 
	C296.755280,59.446003 295.328094,56.590302 295.216431,54.888653 
	C294.868652,49.589264 294.964447,44.249012 295.130981,38.932209 
	C295.224640,35.942318 294.221985,34.774143 291.134766,34.849819 
	C284.320007,35.016880 277.489929,35.080757 270.684845,34.773067 
	C268.888947,34.691872 267.161133,33.103939 265.402069,32.207886 
	C267.201447,31.196884 268.957916,29.417080 270.807922,29.313929 
	C277.274200,28.953384 283.779541,28.993471 290.256378,29.240114 
	C293.882172,29.378187 295.383392,28.367561 295.156372,24.513948 
	C294.853699,19.375460 295.061096,14.206923 295.003174,8.593478 
	C297.022247,8.076859 299.087524,8.018055 301.588989,8.035801 
z"/>
<path fill="#9E8692" opacity="1.000000" stroke="none" 
	d="
M263.840210,340.362701 
	C246.661896,372.030304 219.346100,389.788757 184.841675,397.194489 
	C146.776169,405.364563 111.471291,398.511078 79.601326,375.932953 
	C61.580730,363.166412 48.445942,346.251923 42.733784,324.845734 
	C35.471207,297.629333 40.400276,272.107056 57.529167,249.475983 
	C75.865379,225.249741 100.803185,211.828461 130.264908,206.006531 
	C161.288773,199.875900 190.752029,204.216125 218.793900,218.698425 
	C221.560638,220.127319 224.366425,221.480560 227.551758,223.300385 
	C229.623520,225.149826 231.297623,226.567825 233.138184,228.245758 
	C234.350906,229.088165 235.397186,229.670654 236.443466,230.253143 
	C255.237732,245.334213 268.028015,264.326050 271.994812,288.254425 
	C274.085449,300.865448 273.565399,313.751953 269.528381,326.188660 
	C269.068848,327.604309 268.709747,329.052521 267.950012,331.041809 
	C266.344025,334.519562 265.092133,337.441132 263.840210,340.362701 
M116.279106,214.892715 
	C115.184975,215.255783 114.090843,215.618835 112.400558,215.977921 
	C111.923752,216.288818 111.446945,216.599716 110.261276,216.968643 
	C108.510887,217.664597 106.760490,218.360535 104.364563,219.063202 
	C103.778328,219.638107 103.192093,220.212997 102.061272,220.762192 
	C101.706100,220.834564 101.350922,220.906921 100.303856,221.018555 
	C99.079033,221.946915 97.854210,222.875275 95.985672,223.888199 
	C94.658463,224.599274 93.331261,225.310349 91.357811,226.045517 
	C90.777931,226.628799 90.198059,227.212082 88.952652,227.903000 
	C85.799438,230.274109 82.569901,232.551071 79.507263,235.033920 
	C70.241150,242.545929 62.140804,251.065674 56.266525,262.232635 
	C55.824993,263.153534 55.383461,264.074463 54.798779,265.528351 
	C54.792522,265.895050 54.786263,266.261749 54.086899,266.933594 
	C52.984982,270.142456 51.883068,273.351349 50.174583,276.836029 
	C49.771004,277.555634 49.367424,278.275208 48.842972,279.782959 
	C48.816868,281.369995 48.790764,282.957062 48.111435,284.846375 
	C47.715790,285.893921 47.320148,286.941467 46.821445,288.858307 
	C46.568657,293.904114 46.315868,298.949921 45.948959,304.877747 
	C46.282543,308.585846 46.616127,312.293915 46.937862,316.602783 
	C47.225819,317.100128 47.513775,317.597504 47.825459,318.897369 
	C48.864014,322.598785 49.902569,326.300201 50.988228,330.669678 
	C51.606876,331.242493 52.225529,331.815308 52.789120,333.104309 
	C54.041264,335.460358 55.293407,337.816376 56.693520,340.876160 
	C57.405121,342.267029 58.116722,343.657867 58.926754,345.751953 
	C64.895897,354.087311 70.470917,362.787415 79.881546,368.769135 
	C80.555511,369.256714 81.229477,369.744293 82.238731,370.791656 
	C83.364441,371.273529 84.490143,371.755371 85.800285,372.919250 
	C86.557625,373.787384 87.162094,374.896637 88.094872,375.488098 
	C106.379646,387.082062 126.465096,393.468445 147.951584,394.972168 
	C164.819565,396.152649 181.336273,393.709778 197.441162,388.264893 
	C219.133606,380.931000 237.420288,368.724701 250.858597,350.174316 
	C265.572174,329.863556 269.854187,307.073242 264.188080,282.583527 
	C260.461823,266.478058 252.588287,252.734909 239.784119,241.201706 
	C237.296906,239.088089 234.809692,236.974457 232.102295,234.242264 
	C231.426575,233.766953 230.750854,233.291626 229.668991,232.289017 
	C227.233566,230.806900 224.798141,229.324768 222.114273,227.224579 
	C221.411072,226.790466 220.707870,226.356339 219.349701,225.711853 
	C216.974457,224.661087 214.599228,223.610306 212.047806,221.921829 
	C205.698685,219.258057 199.349564,216.594269 192.235245,213.818665 
	C188.623962,213.160339 185.012695,212.502014 181.093979,211.203598 
	C180.064606,210.861130 179.035248,210.518661 177.189041,210.025543 
	C175.806122,209.988739 174.423203,209.951935 172.445374,209.385025 
	C164.835373,208.946320 157.228271,208.428589 149.612457,208.147552 
	C148.358932,208.101288 147.067078,209.093918 145.119125,209.642578 
	C144.445297,209.675064 143.771454,209.707535 142.597015,209.309998 
	C141.389420,209.518921 140.181839,209.727844 138.144714,209.900391 
	C136.768829,210.008499 135.392929,210.116592 133.323074,210.084259 
	C132.415527,210.657272 131.507980,211.230286 129.833603,211.748108 
	C128.555801,211.832703 127.278008,211.917297 125.320663,211.949890 
	C124.548660,212.303680 123.776665,212.657486 122.305847,212.987396 
	C121.201881,213.313873 120.097908,213.640335 118.400558,213.957870 
	C117.926704,214.261719 117.452850,214.565552 116.279106,214.892715 
z"/>
<path fill="#6E9973" opacity="1.000000" stroke="none" 
	d="
M232.971741,227.985809 
	C231.297623,226.567825 229.623520,225.149826 227.905548,223.490265 
	C239.287872,211.417709 250.664932,199.538620 262.176971,187.791824 
	C264.837402,185.077148 267.959473,182.814896 271.531891,179.781647 
	C266.214386,175.749298 262.136627,172.657059 257.018585,168.775986 
	C263.627899,166.896362 268.832336,165.416275 274.734985,163.934418 
	C276.010681,163.462112 276.588104,162.991562 277.165558,162.521011 
	C277.828705,162.335770 278.491821,162.150543 279.864868,161.943268 
	C282.084473,161.030045 283.594208,160.138855 285.103912,159.247681 
	C285.470398,159.129654 285.836884,159.011642 286.809326,158.897247 
	C287.990082,158.392029 288.564880,157.883179 289.139679,157.374329 
	C290.829865,156.598602 292.520020,155.822861 294.859528,154.999207 
	C296.056030,154.442490 296.603210,153.933655 297.150391,153.424805 
	C299.151733,152.289780 301.153107,151.154755 303.813354,149.964081 
	C305.011963,149.341797 305.551636,148.775162 306.091339,148.208542 
	C306.452606,148.076904 306.813904,147.945251 307.745483,147.978302 
	C308.231476,149.789139 308.147125,151.435318 308.062744,153.081482 
	C306.626556,156.096771 305.190338,159.112076 303.358765,162.559387 
	C302.566406,163.978317 302.169495,164.965225 301.772583,165.952118 
	C301.726532,166.373611 301.680542,166.795105 301.267151,167.607971 
	C300.528839,168.984619 300.157898,169.969879 299.786987,170.955139 
	C299.744934,171.377686 299.702850,171.800217 299.252441,172.652893 
	C298.356903,174.510025 297.869720,175.937012 297.382538,177.363998 
	C297.308136,178.023270 297.233734,178.682526 296.768524,179.825073 
	C296.046448,181.661728 295.715179,183.015091 295.383911,184.368469 
	C295.311157,185.651749 295.238373,186.935013 294.828033,188.820404 
	C293.861145,190.537872 293.231842,191.653259 292.602539,192.768646 
	C290.308075,191.545227 288.013641,190.321823 285.340027,188.633698 
	C284.291840,187.790726 283.622803,187.412491 282.953766,187.034256 
	C282.953766,187.034256 282.525970,186.882889 282.220703,186.464539 
	C280.594330,186.334854 279.273254,186.623520 277.952209,186.912201 
	C274.144318,190.813492 270.336426,194.714767 265.904999,198.825974 
	C264.168579,200.320038 263.055695,201.604187 261.942810,202.888336 
	C261.377136,203.425201 260.811462,203.962067 259.746704,204.763062 
	C258.805847,205.639603 258.364075,206.251968 257.922302,206.864349 
	C257.111725,207.787582 256.301178,208.710831 254.901123,209.835876 
	C253.525955,211.000153 252.740250,211.962631 251.954529,212.925079 
	C249.785004,215.119690 247.615479,217.314285 244.900085,219.784653 
	C243.899567,220.702209 243.444946,221.344009 242.990311,221.985794 
	C242.990311,221.985794 243.000000,222.000000 242.651978,222.020538 
	C241.184738,223.335098 240.065521,224.629150 238.946304,225.923187 
	C238.946304,225.923187 238.992538,225.991394 238.647736,226.010651 
	C237.844971,226.651215 237.387024,227.272507 236.929092,227.893799 
	C236.929092,227.893799 236.966324,227.971786 236.539459,227.963226 
	C235.065628,227.965042 234.018692,227.975433 232.971741,227.985809 
z"/>
<path fill="#6D9973" opacity="1.000000" stroke="none" 
	d="
M264.246368,340.490509 
	C265.092133,337.441132 266.344025,334.519562 267.820557,331.455688 
	C284.885284,336.352173 301.725555,341.390472 318.564484,346.433167 
	C318.881958,346.528259 319.175201,346.707123 319.494141,346.794250 
	C323.481995,347.883392 328.174194,350.742310 331.257843,349.526306 
	C334.134827,348.391815 335.392212,342.968567 337.193817,339.349152 
	C338.499603,336.725830 339.708466,336.962067 341.714386,338.733673 
	C350.520203,346.510773 359.446136,354.151855 368.696594,362.319397 
	C370.821350,363.761200 372.578003,364.725830 374.334656,365.690430 
	C375.022461,366.086670 375.710266,366.482910 376.736694,367.318665 
	C377.798431,368.103333 378.521576,368.448517 379.244690,368.793701 
	C379.244690,368.793701 379.627380,368.872009 379.727142,369.315369 
	C378.230652,370.010651 376.642456,370.371887 375.036377,370.489777 
	C372.375397,370.685181 369.702942,370.723877 367.035309,370.828552 
	C361.657043,370.855042 356.278809,370.881500 350.135559,370.618347 
	C345.243683,370.911713 341.116791,371.494720 336.989899,372.077698 
	C335.701355,372.162079 334.412781,372.246490 332.353455,372.233704 
	C330.351013,372.653961 329.119324,373.171387 327.887634,373.688812 
	C327.467651,373.762909 327.047699,373.836975 326.153748,373.581055 
	C326.009155,370.716370 326.338562,368.181671 326.667969,365.647003 
	C326.773529,364.998657 326.879089,364.350311 327.419769,363.300598 
	C330.262939,359.009308 328.412231,358.010284 324.710815,358.267578 
	C323.749695,358.126404 322.788605,357.985260 321.374634,357.427094 
	C320.161530,356.795044 319.401215,356.580017 318.640930,356.364990 
	C318.279633,356.329071 317.918335,356.293091 317.137634,355.932251 
	C315.489136,355.350067 314.259979,355.092773 313.030853,354.835480 
	C312.607880,354.792511 312.184906,354.749542 311.334747,354.330139 
	C310.171417,353.726929 309.435242,353.500122 308.699097,353.273346 
	C307.739380,353.137115 306.779633,353.000885 305.356140,352.446198 
	C303.844177,351.760590 302.795959,351.493408 301.747742,351.226257 
	C301.077026,351.141357 300.406311,351.056458 299.312225,350.544922 
	C297.812347,349.858215 296.735870,349.598145 295.659363,349.338074 
	C295.292664,349.298737 294.925995,349.259430 294.133118,348.897491 
	C292.485046,348.311829 291.263092,348.048767 290.041168,347.785706 
	C289.617035,347.745239 289.192902,347.704803 288.337738,347.293396 
	C287.180969,346.694397 286.455231,346.466339 285.729492,346.238281 
	C284.764374,346.100708 283.799286,345.963104 282.374054,345.425781 
	C281.163147,344.791443 280.412323,344.556824 279.661530,344.322235 
	C274.658508,343.087585 269.655518,341.852966 264.246368,340.490509 
z"/>
<path fill="#546D57" opacity="1.000000" stroke="none" 
	d="
M367.305603,371.131073 
	C369.702942,370.723877 372.375397,370.685181 375.036377,370.489777 
	C376.642456,370.371887 378.230652,370.010651 379.908447,369.387878 
	C383.433380,370.648315 385.455292,369.578461 387.625183,366.330933 
	C395.070526,355.187988 406.113525,350.090729 419.190826,349.067993 
	C429.310791,348.276550 439.082703,349.442078 447.916595,355.002655 
	C459.004150,361.981812 466.310669,371.395508 465.816833,385.076416 
	C465.290955,399.644775 456.628479,409.048950 444.215729,414.850616 
	C425.274933,423.703308 407.449249,420.546143 391.948853,406.943878 
	C383.622467,399.637177 380.611542,389.646942 382.438385,378.485626 
	C382.697754,376.901093 382.911835,375.309174 383.205139,373.327179 
	C377.674927,372.657166 372.625427,372.045380 367.305603,371.131073 
M412.405426,355.010681 
	C411.931488,355.323090 411.457520,355.635498 410.278595,356.030701 
	C408.138611,357.254272 405.998596,358.477844 403.153046,359.844360 
	C400.311371,362.505432 397.469727,365.166534 393.980377,367.966797 
	C393.263855,369.224152 392.547363,370.481537 391.227417,371.960938 
	C390.808136,372.637543 390.388885,373.314148 389.899323,374.748260 
	C389.868378,375.751740 389.837433,376.755249 389.049072,378.061005 
	C385.198059,387.825378 390.651978,398.841644 397.408081,404.786713 
	C410.931061,416.686371 433.344727,417.500671 447.682526,406.558655 
	C455.571198,400.538391 460.782593,392.554352 459.790192,382.224640 
	C458.114532,364.783234 440.825012,353.375427 425.124237,353.968414 
	C421.084442,354.317902 417.044617,354.667389 412.405426,355.010681 
z"/>
<path fill="#546C57" opacity="1.000000" stroke="none" 
	d="
M308.399414,152.998444 
	C308.147125,151.435318 308.231476,149.789139 308.022430,147.897583 
	C310.811066,145.041214 309.773102,143.053314 307.243103,140.517944 
	C301.079102,134.340942 297.022797,126.883354 297.236725,117.967659 
	C297.599060,102.865395 306.178497,92.804352 319.143768,86.827766 
	C336.843231,78.668854 358.531219,81.317139 372.794769,96.494652 
	C385.629578,110.151863 383.742279,131.119247 368.777283,142.993057 
	C353.515747,155.102142 336.606354,156.053070 319.183594,148.768509 
	C314.235840,146.699844 311.565247,146.694397 309.824829,151.952118 
	C309.693207,152.349777 309.109558,152.597809 308.399414,152.998444 
M303.997894,111.761726 
	C303.982635,112.504639 303.967377,113.247551 303.419983,114.523842 
	C303.587952,116.692551 303.755920,118.861259 303.918030,121.772171 
	C303.956177,122.513176 303.994324,123.254173 304.057831,124.728500 
	C305.241791,127.268669 306.140076,129.994919 307.654449,132.319855 
	C320.971893,152.765381 354.510376,153.455353 369.691925,134.023148 
	C380.805023,119.798477 374.089905,97.916313 356.385773,91.591568 
	C354.333038,91.018967 352.280334,90.446365 350.028778,89.264252 
	C349.346649,88.892799 348.664520,88.521347 347.116852,88.053665 
	C345.085114,88.015541 343.053345,87.977417 340.578217,87.444458 
	C339.384094,87.621078 338.189941,87.797699 336.137268,87.954010 
	C330.356506,89.916389 324.575775,91.878769 318.099762,93.894028 
	C315.401703,96.263184 312.703644,98.632339 309.419434,101.236549 
	C308.915161,102.110199 308.410889,102.983849 307.234558,104.051666 
	C306.178741,106.375015 305.122925,108.698364 303.997894,111.761726 
z"/>
<path fill="#527357" opacity="1.000000" stroke="none" 
	d="
M227.002136,43.044495 
	C234.828735,43.048317 242.171158,42.789928 249.473297,43.218346 
	C251.615891,43.344051 253.644104,45.419121 255.724731,46.600773 
	C253.593246,48.044174 251.581512,50.452103 249.305893,50.734619 
	C244.221619,51.365837 238.970673,51.311314 233.853851,50.830818 
	C229.137634,50.387947 227.794373,52.842068 226.942627,56.643459 
	C224.733505,66.502785 222.430206,76.341667 220.076477,86.167618 
	C219.102280,90.234444 215.544357,92.837753 212.659393,91.499565 
	C208.837936,89.726982 208.884384,86.993233 210.384171,83.230682 
	C214.485031,72.942711 218.081024,62.453499 222.100082,51.432079 
	C213.918915,50.440327 206.613998,50.235714 200.674271,56.604012 
	C197.459396,60.050873 197.348297,59.947254 193.574875,59.282070 
	C194.310394,52.272800 205.154877,42.519905 213.516510,43.017036 
	C217.830490,43.273518 222.172989,43.050690 227.002136,43.044495 
z"/>
<path fill="#4F6E53" opacity="1.000000" stroke="none" 
	d="
M412.995667,453.018555 
	C400.003265,453.014557 387.509766,453.017975 375.016296,452.995514 
	C373.691345,452.993134 372.292358,453.068359 371.068756,452.672058 
	C370.293365,452.420929 369.178955,451.250244 369.283569,450.691772 
	C369.456909,449.766296 370.339752,448.730530 371.205902,448.249908 
	C371.991211,447.814240 373.153168,448.009094 374.149109,448.008514 
	C390.973694,447.998627 407.799072,447.929260 424.621674,448.112213 
	C426.328094,448.130768 428.017822,449.685760 429.715302,450.527771 
	C427.973145,451.356201 426.285980,452.713531 424.477234,452.901642 
	C420.851501,453.278748 417.159332,453.016724 412.995667,453.018555 
z"/>
<path fill="#546D57" opacity="1.000000" stroke="none" 
	d="
M337.283386,372.313416 
	C341.116791,371.494720 345.243683,370.911713 349.667145,370.581848 
	C345.834778,371.406342 341.705841,371.977753 337.283386,372.313416 
z"/>
<path fill="#546D57" opacity="1.000000" stroke="none" 
	d="
M326.353516,365.786499 
	C326.338562,368.181671 326.009155,370.716370 325.833374,373.575195 
	C323.200317,375.511932 321.784271,374.502258 322.613953,371.571350 
	C323.191833,369.529968 324.858673,367.796844 326.353516,365.786499 
z"/>
<path fill="#546D57" opacity="1.000000" stroke="none" 
	d="
M324.869324,358.572723 
	C328.412231,358.010284 330.262939,359.009308 327.512054,362.985199 
	C326.455444,361.673401 325.741638,360.275635 324.869324,358.572723 
z"/>
<path fill="#546C57" opacity="1.000000" stroke="none" 
	d="
M292.758423,193.012268 
	C293.231842,191.653259 293.861145,190.537872 294.792664,189.205322 
	C295.964478,191.226410 296.917267,193.507172 292.758423,193.012268 
z"/>
<path fill="#546D57" opacity="1.000000" stroke="none" 
	d="
M374.190613,365.390991 
	C372.578003,364.725830 370.821350,363.761200 369.001282,362.465485 
	C370.640747,363.120087 372.343658,364.105804 374.190613,365.390991 
z"/>
<path fill="#546C57" opacity="1.000000" stroke="none" 
	d="
M262.284515,202.883621 
	C263.055695,201.604187 264.168579,200.320038 265.619019,199.004669 
	C264.846466,200.275284 263.736328,201.577087 262.284515,202.883621 
z"/>
<path fill="#546C57" opacity="1.000000" stroke="none" 
	d="
M239.288437,225.908295 
	C240.065521,224.629150 241.184738,223.335098 242.644867,222.015625 
	C241.867386,223.291260 240.748978,224.592331 239.288437,225.908295 
z"/>
<path fill="#546C57" opacity="1.000000" stroke="none" 
	d="
M284.745300,159.208572 
	C283.594208,160.138855 282.084473,161.030045 280.206848,161.895798 
	C281.354858,160.970062 282.870789,160.069763 284.745300,159.208572 
z"/>
<path fill="#546C57" opacity="1.000000" stroke="none" 
	d="
M297.665588,177.191345 
	C297.869720,175.937012 298.356903,174.510025 299.150116,172.955475 
	C298.953674,174.224823 298.451141,175.621750 297.665588,177.191345 
z"/>
<path fill="#546C57" opacity="1.000000" stroke="none" 
	d="
M295.653717,184.220062 
	C295.715179,183.015091 296.046448,181.661728 296.712555,180.152145 
	C296.672760,181.354492 296.298157,182.713074 295.653717,184.220062 
z"/>
<path fill="#546D57" opacity="1.000000" stroke="none" 
	d="
M328.248291,373.791138 
	C329.119324,373.171387 330.351013,372.653961 331.966797,372.245453 
	C331.103607,372.867371 329.856262,373.380402 328.248291,373.791138 
z"/>
<path fill="#546D57" opacity="1.000000" stroke="none" 
	d="
M313.186249,355.102600 
	C314.259979,355.092773 315.489136,355.350067 316.868988,355.887177 
	C315.793701,355.901245 314.567657,355.635468 313.186249,355.102600 
z"/>
<path fill="#546D57" opacity="1.000000" stroke="none" 
	d="
M290.191162,348.058411 
	C291.263092,348.048767 292.485046,348.311829 293.860962,348.847717 
	C292.790344,348.857391 291.565765,348.594238 290.191162,348.058411 
z"/>
<path fill="#546C57" opacity="1.000000" stroke="none" 
	d="
M252.290985,212.913910 
	C252.740250,211.962631 253.525955,211.000153 254.648163,210.014404 
	C254.198929,210.961670 253.413193,211.932205 252.290985,212.913910 
z"/>
<path fill="#546C57" opacity="1.000000" stroke="none" 
	d="
M302.089111,165.822525 
	C302.169495,164.965225 302.566406,163.978317 303.228577,162.908417 
	C303.131073,163.781265 302.768372,164.737091 302.089111,165.822525 
z"/>
<path fill="#546C57" opacity="1.000000" stroke="none" 
	d="
M300.105469,170.828156 
	C300.157898,169.969879 300.528839,168.984619 301.155945,167.906952 
	C301.082733,168.776764 300.753357,169.738968 300.105469,170.828156 
z"/>
<path fill="#546C57" opacity="1.000000" stroke="none" 
	d="
M278.252167,186.847809 
	C279.273254,186.623520 280.594330,186.334854 282.019104,186.360413 
	C280.932556,186.710922 279.742371,186.747177 278.252167,186.847809 
z"/>
<path fill="#546D57" opacity="1.000000" stroke="none" 
	d="
M301.895813,351.534363 
	C302.795959,351.493408 303.844177,351.760590 305.006104,352.348236 
	C304.094513,352.393311 303.069214,352.117889 301.895813,351.534363 
z"/>
<path fill="#546D57" opacity="1.000000" stroke="none" 
	d="
M295.834106,349.626434 
	C296.735870,349.598145 297.812347,349.858215 298.984741,350.460297 
	C298.056702,350.506439 297.032806,350.210632 295.834106,349.626434 
z"/>
<path fill="#546C57" opacity="1.000000" stroke="none" 
	d="
M233.138184,228.245758 
	C234.018692,227.975433 235.065628,227.965042 236.502686,227.940536 
	C236.864273,228.460129 236.835770,228.993851 236.625366,229.890350 
	C235.397186,229.670654 234.350906,229.088165 233.138184,228.245758 
z"/>
<path fill="#546D57" opacity="1.000000" stroke="none" 
	d="
M279.800171,344.607483 
	C280.412323,344.556824 281.163147,344.791443 282.022888,345.324493 
	C281.400818,345.379547 280.669800,345.136139 279.800171,344.607483 
z"/>
<path fill="#546C57" opacity="1.000000" stroke="none" 
	d="
M288.830231,157.301605 
	C288.564880,157.883179 287.990082,158.392029 287.095032,158.852753 
	C287.356750,158.279388 287.938782,157.754135 288.830231,157.301605 
z"/>
<path fill="#546D57" opacity="1.000000" stroke="none" 
	d="
M318.802643,356.631592 
	C319.401215,356.580017 320.161530,356.795044 321.029724,357.309662 
	C320.413177,357.372223 319.688782,357.135193 318.802643,356.631592 
z"/>
<path fill="#546C57" opacity="1.000000" stroke="none" 
	d="
M296.837036,153.349792 
	C296.603210,153.933655 296.056030,154.442490 295.201782,154.934723 
	C295.437714,154.370316 295.980713,153.822540 296.837036,153.349792 
z"/>
<path fill="#546C57" opacity="1.000000" stroke="none" 
	d="
M305.773193,148.178253 
	C305.551636,148.775162 305.011963,149.341797 304.145264,149.880280 
	C304.363892,149.284073 304.909485,148.716019 305.773193,148.178253 
z"/>
<path fill="#546D57" opacity="1.000000" stroke="none" 
	d="
M379.136749,368.495911 
	C378.521576,368.448517 377.798431,368.103333 377.012451,367.432953 
	C377.642670,367.471222 378.335754,367.834686 379.136749,368.495911 
z"/>
<path fill="#546C57" opacity="1.000000" stroke="none" 
	d="
M243.309204,221.954498 
	C243.444946,221.344009 243.899567,220.702209 244.677094,220.030945 
	C244.542709,220.642059 244.085403,221.282623 243.309204,221.954498 
z"/>
<path fill="#546C57" opacity="1.000000" stroke="none" 
	d="
M283.009583,187.350525 
	C283.622803,187.412491 284.291840,187.790726 285.029968,188.470856 
	C284.421173,188.404083 283.743286,188.035431 283.009583,187.350525 
z"/>
<path fill="#546C57" opacity="1.000000" stroke="none" 
	d="
M237.253082,227.880463 
	C237.387024,227.272507 237.844971,226.651215 238.613098,225.988358 
	C238.474548,226.586899 238.025818,227.227005 237.253082,227.880463 
z"/>
<path fill="#546C57" opacity="1.000000" stroke="none" 
	d="
M258.245453,206.859863 
	C258.364075,206.251968 258.805847,205.639603 259.546051,204.976257 
	C259.419159,205.568665 258.993866,206.212021 258.245453,206.859863 
z"/>
<path fill="#546D57" opacity="1.000000" stroke="none" 
	d="
M285.850830,346.534180 
	C286.455231,346.466339 287.180969,346.694397 288.032837,347.194855 
	C287.430054,347.254883 286.701111,347.042511 285.850830,346.534180 
z"/>
<path fill="#546C57" opacity="1.000000" stroke="none" 
	d="
M276.861969,162.413757 
	C276.588104,162.991562 276.010681,163.462112 275.125366,163.889771 
	C275.397766,163.333405 275.978058,162.819946 276.861969,162.413757 
z"/>
<path fill="#546D57" opacity="1.000000" stroke="none" 
	d="
M308.827576,353.564941 
	C309.435242,353.500122 310.171417,353.726929 311.029724,354.234802 
	C310.419922,354.296082 309.688019,354.076294 308.827576,353.564941 
z"/>
<path fill="#E2C2D2" opacity="1.000000" stroke="none" 
	d="
M240.092499,241.763245 
	C252.588287,252.734909 260.461823,266.478058 264.188080,282.583527 
	C269.854187,307.073242 265.572174,329.863556 250.858597,350.174316 
	C237.420288,368.724701 219.133606,380.931000 197.441162,388.264893 
	C181.336273,393.709778 164.819565,396.152649 147.951584,394.972168 
	C126.465096,393.468445 106.379646,387.082062 88.094872,375.488098 
	C87.162094,374.896637 86.557625,373.787384 86.111603,372.525635 
	C96.634354,376.047729 106.999481,378.830200 117.931488,380.601013 
	C127.706734,382.184387 137.056107,380.834351 146.586411,380.847260 
	C150.451981,380.852478 154.444046,380.794678 158.157944,379.874847 
	C165.681656,378.011383 173.112137,375.714020 180.479004,373.285889 
	C199.553894,366.998810 215.451279,355.836792 228.569946,340.786407 
	C233.110382,335.577393 237.810623,330.122253 240.711014,323.965973 
	C244.402161,316.131256 246.665329,307.556488 248.895706,299.129150 
	C250.019043,294.884705 249.689529,290.259674 250.054199,285.809784 
	C250.827408,276.375031 250.239105,267.119110 246.637970,258.222534 
	C244.422653,252.749680 242.272125,247.250565 240.092499,241.763245 
z"/>
<path fill="#E6C6D6" opacity="1.000000" stroke="none" 
	d="
M239.938309,241.482483 
	C242.272125,247.250565 244.422653,252.749680 246.637970,258.222534 
	C250.239105,267.119110 250.827408,276.375031 250.054199,285.809784 
	C249.689529,290.259674 250.019043,294.884705 248.895706,299.129150 
	C246.665329,307.556488 244.402161,316.131256 240.711014,323.965973 
	C237.810623,330.122253 233.110382,335.577393 228.569946,340.786407 
	C215.451279,355.836792 199.553894,366.998810 180.479004,373.285889 
	C173.112137,375.714020 165.681656,378.011383 158.157944,379.874847 
	C154.444046,380.794678 150.451981,380.852478 146.586411,380.847260 
	C137.056107,380.834351 127.706734,382.184387 117.931488,380.601013 
	C106.999481,378.830200 96.634354,376.047729 86.019379,372.184601 
	C84.490143,371.755371 83.364441,371.273529 82.062187,370.139832 
	C81.141617,369.041595 80.397598,368.595245 79.653580,368.148895 
	C70.470917,362.787415 64.895897,354.087311 59.241684,345.414429 
	C62.362759,347.546783 64.936966,350.362457 68.014954,352.427094 
	C81.727325,361.624908 96.785629,366.964569 113.219315,369.425781 
	C128.375854,371.695709 143.473740,372.019470 158.153305,368.549011 
	C181.660751,362.991547 202.451202,352.198944 218.462723,333.194672 
	C232.717712,316.275238 239.384125,296.982056 237.900131,275.116394 
	C236.565063,255.444672 228.366180,238.755768 213.731094,225.348083 
	C212.994980,224.673706 212.715881,223.500473 212.223984,222.559525 
	C214.599228,223.610306 216.974457,224.661087 219.725174,226.171722 
	C220.854675,227.035278 221.608688,227.438965 222.362717,227.842651 
	C224.798141,229.324768 227.233566,230.806900 229.889008,232.917480 
	C230.846848,233.984238 231.584656,234.422546 232.322479,234.860840 
	C234.809692,236.974457 237.296906,239.088089 239.938309,241.482483 
z"/>
<path fill="#F6D4E5" opacity="1.000000" stroke="none" 
	d="
M92.004051,226.021423 
	C93.331261,225.310349 94.658463,224.599274 96.689453,223.885803 
	C98.594070,222.915359 99.794907,221.947327 100.995750,220.979294 
	C101.350922,220.906921 101.706100,220.834564 102.692451,220.818207 
	C103.885788,220.268326 104.447945,219.662399 105.010101,219.056488 
	C106.760490,218.360535 108.510887,217.664597 110.776871,217.201569 
	C111.859261,217.621155 112.426071,217.807831 113.367783,217.995422 
	C114.828659,217.338242 115.914635,216.680161 117.333664,216.015228 
	C118.110832,216.003738 118.554962,215.999130 119.166183,216.311935 
	C121.499771,216.752975 123.664879,216.913879 125.832962,216.994339 
	C143.606705,217.653976 159.944595,222.799438 173.545105,234.348419 
	C180.682465,240.409164 186.704330,247.894089 188.548981,257.658630 
	C183.733627,257.695190 179.365250,257.590820 174.982178,257.147430 
	C174.791779,256.173248 174.703415,255.497147 174.427750,254.908783 
	C165.201370,235.216171 147.657471,227.491898 127.924751,225.323151 
	C108.026230,223.136185 90.352028,229.724548 76.403503,245.004196 
	C66.115089,256.274445 62.635529,269.791046 66.759903,283.673004 
	C73.056389,304.866058 89.213852,316.119965 110.592430,319.930634 
	C115.523239,320.809540 120.643890,320.623383 125.693497,321.256866 
	C122.187157,325.740387 118.664497,329.894348 114.727554,333.987000 
	C106.862610,331.905640 99.134659,330.575806 92.020638,327.717804 
	C78.395882,322.244202 67.743423,312.787109 60.587379,299.939789 
	C55.512383,290.828613 53.577412,280.859406 55.301434,270.357391 
	C55.495567,269.174805 54.971195,267.874268 54.780006,266.628448 
	C54.786263,266.261749 54.792522,265.895050 55.206329,265.235596 
	C56.016300,263.934906 56.418716,262.926910 56.821129,261.918945 
	C62.140804,251.065674 70.241150,242.545929 79.507263,235.033920 
	C82.569901,232.551071 85.799438,230.274109 89.645248,227.888763 
	C90.893242,227.256836 91.448647,226.639130 92.004051,226.021423 
z"/>
<path fill="#EAC9DA" opacity="1.000000" stroke="none" 
	d="
M50.941124,330.001617 
	C49.902569,326.300201 48.864014,322.598785 48.075344,318.330750 
	C47.866726,317.176758 47.408218,316.589386 46.949711,316.002014 
	C46.616127,312.293915 46.282543,308.585846 46.348221,304.474579 
	C47.826611,305.036652 49.273800,305.800781 49.927975,306.998169 
	C56.499737,319.026825 65.454964,328.782684 77.292542,335.731506 
	C86.874123,341.356018 96.662857,346.559235 108.524185,346.948792 
	C109.584145,346.975342 110.293648,346.986786 111.411217,347.096649 
	C114.463013,347.366608 117.106018,347.674347 119.750580,347.688385 
	C142.167206,347.807526 164.584122,347.873077 186.966690,348.306610 
	C185.035248,350.403717 183.399460,352.640564 181.196960,353.811432 
	C169.936798,359.797607 157.747314,362.597656 145.149139,364.226532 
	C129.972977,366.188690 114.906860,365.225922 100.326340,361.366638 
	C86.029274,357.582397 72.774773,350.917725 61.017780,341.623688 
	C59.865013,340.712402 58.052059,340.636230 56.545547,340.172424 
	C55.293407,337.816376 54.041264,335.460358 52.837585,332.377136 
	C52.237740,331.100525 51.589432,330.551056 50.941124,330.001617 
z"/>
<path fill="#E8C7D8" opacity="1.000000" stroke="none" 
	d="
M56.619530,340.524292 
	C58.052059,340.636230 59.865013,340.712402 61.017780,341.623688 
	C72.774773,350.917725 86.029274,357.582397 100.326340,361.366638 
	C114.906860,365.225922 129.972977,366.188690 145.149139,364.226532 
	C157.747314,362.597656 169.936798,359.797607 181.196960,353.811432 
	C183.399460,352.640564 185.035248,350.403717 187.400513,348.215759 
	C190.967636,347.540802 194.066650,347.308624 197.537216,347.009338 
	C198.603027,343.961853 199.297302,340.981537 200.358124,337.996643 
	C201.504852,337.765015 202.468750,337.756989 203.038483,337.279083 
	C218.718842,324.125305 227.934082,307.169037 229.809326,286.998260 
	C232.010269,263.324036 223.012756,243.225540 206.720291,226.316467 
	C202.455658,221.890427 197.590042,218.043427 193.000443,213.930481 
	C199.349564,216.594269 205.698685,219.258057 212.135895,222.240677 
	C212.715881,223.500473 212.994980,224.673706 213.731094,225.348083 
	C228.366180,238.755768 236.565063,255.444672 237.900131,275.116394 
	C239.384125,296.982056 232.717712,316.275238 218.462723,333.194672 
	C202.451202,352.198944 181.660751,362.991547 158.153305,368.549011 
	C143.473740,372.019470 128.375854,371.695709 113.219315,369.425781 
	C96.785629,366.964569 81.727325,361.624908 68.014954,352.427094 
	C64.936966,350.362457 62.362759,347.546783 59.192467,345.062805 
	C58.116722,343.657867 57.405121,342.267029 56.619530,340.524292 
z"/>
<path fill="#F2D1E1" opacity="1.000000" stroke="none" 
	d="
M188.995956,257.517700 
	C186.704330,247.894089 180.682465,240.409164 173.545105,234.348419 
	C159.944595,222.799438 143.606705,217.653976 125.832962,216.994339 
	C123.664879,216.913879 121.499771,216.752975 119.167038,215.974213 
	C118.998505,214.868317 118.996223,214.417557 118.993942,213.966812 
	C120.097908,213.640335 121.201881,213.313873 122.853020,213.253967 
	C124.266861,213.014328 125.133537,212.508118 126.000214,212.001907 
	C127.278008,211.917297 128.555801,211.832703 130.597244,211.835266 
	C132.246277,211.356506 133.131653,210.790604 134.017044,210.224701 
	C135.392929,210.116592 136.768829,210.008499 138.776215,210.198135 
	C140.637680,210.243927 141.867645,209.991974 143.097626,209.740021 
	C143.771454,209.707535 144.445297,209.675064 145.666473,209.968964 
	C148.010803,211.102631 149.733047,212.260208 151.616547,212.662201 
	C167.748566,216.105148 181.007751,224.411835 191.962845,236.502625 
	C206.083099,252.086716 210.232071,270.484039 206.096008,290.757324 
	C204.823898,296.992615 202.073517,302.926331 199.713120,309.002625 
	C198.962433,309.274170 198.498672,309.541229 197.616486,309.859619 
	C195.793015,309.914825 194.387985,309.918732 192.811401,309.671661 
	C191.943527,309.469421 191.247192,309.518219 190.550873,309.566986 
	C190.728622,310.053253 190.906372,310.539520 191.047287,311.384918 
	C190.886292,312.453339 190.762146,313.162598 190.436386,313.876984 
	C190.234772,313.882080 189.839905,313.968750 189.488739,313.986145 
	C188.659851,314.116089 187.981171,314.063568 187.733505,314.365082 
	C179.420959,324.485291 168.806915,331.133026 156.526306,335.378662 
	C155.502228,335.732666 154.835693,337.120850 153.543030,338.035034 
	C148.905212,337.649994 144.727448,337.258484 140.651276,336.566101 
	C141.446091,335.476868 142.139282,334.688568 143.196182,333.890625 
	C143.961288,333.135712 144.362686,332.390442 144.827713,331.378906 
	C145.266937,330.745117 145.642548,330.377625 146.344635,330.005432 
	C147.756851,329.293610 148.842606,328.586456 150.093521,328.200317 
	C151.555817,328.816742 153.211472,329.777557 154.093384,329.302368 
	C161.179733,325.484070 168.864151,322.282684 174.939407,317.190887 
	C185.334854,308.478241 192.847198,297.525787 194.783768,283.460449 
	C195.383591,279.104004 194.723877,276.345032 189.934036,275.658203 
	C190.418747,274.917297 190.821442,274.468750 191.587006,274.010315 
	C192.608398,272.940674 193.266922,271.881012 194.014084,270.544312 
	C194.506622,269.854584 194.910507,269.441956 195.645691,269.020020 
	C197.037262,267.360352 198.097534,265.709961 199.097900,263.648895 
	C199.083542,262.134857 199.129059,261.031464 199.406860,259.712280 
	C199.537949,258.798462 199.436752,258.100464 199.335571,257.402466 
	C198.550217,257.617279 197.764862,257.832123 196.535431,258.091919 
	C193.726227,257.930481 191.361099,257.724091 188.995956,257.517700 
z"/>
<path fill="#EBCADA" opacity="1.000000" stroke="none" 
	d="
M192.617844,213.874573 
	C197.590042,218.043427 202.455658,221.890427 206.720291,226.316467 
	C223.012756,243.225540 232.010269,263.324036 229.809326,286.998260 
	C227.934082,307.169037 218.718842,324.125305 203.038483,337.279083 
	C202.468750,337.756989 201.504852,337.765015 200.352005,337.558411 
	C199.681030,334.422791 199.382706,331.720764 199.036346,328.573486 
	C199.160309,325.752930 199.332306,323.377655 199.841156,320.987366 
	C203.653534,315.916321 207.419556,311.032928 210.547440,305.770233 
	C218.388077,292.578156 217.830261,277.849487 215.377792,263.801178 
	C213.048080,250.456100 205.451889,238.679413 195.532578,229.399063 
	C188.165497,222.506546 179.180161,217.343689 170.956543,211.439789 
	C171.273743,211.207703 172.157013,210.561417 173.040283,209.915131 
	C174.423203,209.951935 175.806122,209.988739 177.675110,210.446106 
	C179.241241,211.192352 180.321335,211.518021 181.401413,211.843674 
	C185.012695,212.502014 188.623962,213.160339 192.617844,213.874573 
z"/>
<path fill="#F0CFDF" opacity="1.000000" stroke="none" 
	d="
M108.173729,346.933685 
	C96.662857,346.559235 86.874123,341.356018 77.292542,335.731506 
	C65.454964,328.782684 56.499737,319.026825 49.927975,306.998169 
	C49.273800,305.800781 47.826611,305.036652 46.405281,304.033569 
	C46.315868,298.949921 46.568657,293.904114 47.252884,288.365967 
	C48.044437,286.763794 48.404549,285.653931 48.764660,284.544098 
	C48.790764,282.957062 48.816868,281.369995 49.259178,279.336914 
	C50.043972,278.114014 50.412560,277.337097 50.781151,276.560211 
	C51.883068,273.351349 52.984982,270.142456 54.433453,266.781006 
	C54.971195,267.874268 55.495567,269.174805 55.301434,270.357391 
	C53.577412,280.859406 55.512383,290.828613 60.587379,299.939789 
	C67.743423,312.787109 78.395882,322.244202 92.020638,327.717804 
	C99.134659,330.575806 106.862610,331.905640 114.686539,334.296814 
	C114.393974,335.455475 113.728149,336.242950 112.711906,337.055298 
	C111.972977,337.812866 111.584465,338.545502 111.157364,339.463348 
	C111.118774,339.648529 110.906128,339.961456 110.534996,340.008575 
	C109.500488,342.348358 108.837105,344.641022 108.173729,346.933685 
z"/>
<path fill="#E9C8D8" opacity="1.000000" stroke="none" 
	d="
M172.742828,209.650085 
	C172.157013,210.561417 171.273743,211.207703 170.956543,211.439789 
	C179.180161,217.343689 188.165497,222.506546 195.532578,229.399063 
	C205.451889,238.679413 213.048080,250.456100 215.377792,263.801178 
	C217.830261,277.849487 218.388077,292.578156 210.547440,305.770233 
	C207.419556,311.032928 203.653534,315.916321 199.733398,320.633484 
	C199.370697,319.566498 199.452621,318.838440 199.857727,317.955811 
	C200.120605,314.866882 200.060318,311.932526 200.000031,308.998138 
	C202.073517,302.926331 204.823898,296.992615 206.096008,290.757324 
	C210.232071,270.484039 206.083099,252.086716 191.962845,236.502625 
	C181.007751,224.411835 167.748566,216.105148 151.616547,212.662201 
	C149.733047,212.260208 148.010803,211.102631 146.003357,209.950867 
	C147.067078,209.093918 148.358932,208.101288 149.612457,208.147552 
	C157.228271,208.428589 164.835373,208.946320 172.742828,209.650085 
z"/>
<path fill="#F2D1E1" opacity="1.000000" stroke="none" 
	d="
M117.000610,216.022079 
	C115.914635,216.680161 114.828659,217.338242 113.371445,217.660156 
	C112.999039,216.876617 112.997871,216.429245 112.996712,215.981888 
	C114.090843,215.618835 115.184975,215.255783 116.633049,215.169754 
	C116.991524,215.638550 116.996063,215.830322 117.000610,216.022079 
z"/>
<path fill="#E9C8D8" opacity="1.000000" stroke="none" 
	d="
M142.847321,209.525009 
	C141.867645,209.991974 140.637680,210.243927 139.190979,210.216339 
	C140.181839,209.727844 141.389420,209.518921 142.847321,209.525009 
z"/>
<path fill="#E9C8D8" opacity="1.000000" stroke="none" 
	d="
M100.649803,220.998932 
	C99.794907,221.947327 98.594070,222.915359 97.011314,223.843506 
	C97.854210,222.875275 99.079033,221.946915 100.649803,220.998932 
z"/>
<path fill="#F0CFDF" opacity="1.000000" stroke="none" 
	d="
M56.543831,262.075806 
	C56.418716,262.926910 56.016300,263.934906 55.277905,264.969116 
	C55.383461,264.074463 55.824993,263.153534 56.543831,262.075806 
z"/>
<path fill="#E9C8D8" opacity="1.000000" stroke="none" 
	d="
M181.247696,211.523636 
	C180.321335,211.518021 179.241241,211.192352 178.083527,210.521454 
	C179.035248,210.518661 180.064606,210.861130 181.247696,211.523636 
z"/>
<path fill="#E6C6D6" opacity="1.000000" stroke="none" 
	d="
M48.438049,284.695251 
	C48.404549,285.653931 48.044437,286.763794 47.304417,287.931335 
	C47.320148,286.941467 47.715790,285.893921 48.438049,284.695251 
z"/>
<path fill="#E9C8D8" opacity="1.000000" stroke="none" 
	d="
M125.660439,211.975891 
	C125.133537,212.508118 124.266861,213.014328 123.202431,213.265915 
	C123.776665,212.657486 124.548660,212.303680 125.660439,211.975891 
z"/>
<path fill="#E9C8D8" opacity="1.000000" stroke="none" 
	d="
M133.670059,210.154480 
	C133.131653,210.790604 132.246277,211.356506 130.980652,211.862854 
	C131.507980,211.230286 132.415527,210.657272 133.670059,210.154480 
z"/>
<path fill="#E2C2D2" opacity="1.000000" stroke="none" 
	d="
M222.238495,227.533615 
	C221.608688,227.438965 220.854675,227.035278 220.052658,226.276917 
	C220.707870,226.356339 221.411072,226.790466 222.238495,227.533615 
z"/>
<path fill="#E9C8D8" opacity="1.000000" stroke="none" 
	d="
M91.680931,226.033478 
	C91.448647,226.639130 90.893242,227.256836 89.978012,227.834961 
	C90.198059,227.212082 90.777931,226.628799 91.680931,226.033478 
z"/>
<path fill="#E2C2D2" opacity="1.000000" stroke="none" 
	d="
M79.767563,368.459015 
	C80.397598,368.595245 81.141617,369.041595 81.894547,369.859924 
	C81.229477,369.744293 80.555511,369.256714 79.767563,368.459015 
z"/>
<path fill="#E9C8D8" opacity="1.000000" stroke="none" 
	d="
M104.687332,219.059845 
	C104.447945,219.662399 103.885788,220.268326 102.964745,220.831055 
	C103.192093,220.212997 103.778328,219.638107 104.687332,219.059845 
z"/>
<path fill="#E9C8D8" opacity="1.000000" stroke="none" 
	d="
M112.698639,215.979904 
	C112.997871,216.429245 112.999039,216.876617 112.996536,217.659241 
	C112.426071,217.807831 111.859261,217.621155 111.131302,217.172546 
	C111.446945,216.599716 111.923752,216.288818 112.698639,215.979904 
z"/>
<path fill="#E9C8D8" opacity="1.000000" stroke="none" 
	d="
M117.333664,216.015228 
	C116.996063,215.830322 116.991524,215.638550 116.982994,215.158096 
	C117.452850,214.565552 117.926704,214.261719 118.697250,213.962341 
	C118.996223,214.417557 118.998505,214.868317 118.999939,215.656784 
	C118.554962,215.999130 118.110832,216.003738 117.333664,216.015228 
z"/>
<path fill="#E6C6D6" opacity="1.000000" stroke="none" 
	d="
M50.477867,276.698120 
	C50.412560,277.337097 50.043972,278.114014 49.319618,278.942871 
	C49.367424,278.275208 49.771004,277.555634 50.477867,276.698120 
z"/>
<path fill="#E6C6D6" opacity="1.000000" stroke="none" 
	d="
M46.943787,316.302399 
	C47.408218,316.589386 47.866726,317.176758 48.063480,317.929504 
	C47.513775,317.597504 47.225819,317.100128 46.943787,316.302399 
z"/>
<path fill="#E6C6D6" opacity="1.000000" stroke="none" 
	d="
M50.964676,330.335632 
	C51.589432,330.551056 52.237740,331.100525 52.865116,332.019043 
	C52.225529,331.815308 51.606876,331.242493 50.964676,330.335632 
z"/>
<path fill="#E2C2D2" opacity="1.000000" stroke="none" 
	d="
M232.212387,234.551544 
	C231.584656,234.422546 230.846848,233.984238 230.092072,233.181122 
	C230.750854,233.291626 231.426575,233.766953 232.212387,234.551544 
z"/>
<path fill="#80A385" opacity="1.000000" stroke="none" 
	d="
M425.993958,354.020752 
	C440.825012,353.375427 458.114532,364.783234 459.790192,382.224640 
	C460.782593,392.554352 455.571198,400.538391 447.682526,406.558655 
	C433.344727,417.500671 410.931061,416.686371 397.408081,404.786713 
	C390.651978,398.841644 385.198059,387.825378 389.495117,378.365601 
	C390.191864,382.047089 389.566986,385.329895 392.624390,388.305450 
	C401.679504,397.118164 414.682465,399.825378 426.142426,394.366211 
	C442.607483,386.522766 443.010132,367.803406 430.522491,358.899933 
	C428.752960,357.638245 427.490906,355.664764 425.993958,354.020752 
z"/>
<path fill="#8CB091" opacity="1.000000" stroke="none" 
	d="
M425.559082,353.994568 
	C427.490906,355.664764 428.752960,357.638245 430.522491,358.899933 
	C443.010132,367.803406 442.607483,386.522766 426.142426,394.366211 
	C414.682465,399.825378 401.679504,397.118164 392.624390,388.305450 
	C389.566986,385.329895 390.191864,382.047089 389.873840,378.214478 
	C389.837433,376.755249 389.868378,375.751740 390.276215,374.325500 
	C391.045685,373.181488 391.438293,372.460205 391.830872,371.738892 
	C392.547363,370.481537 393.263855,369.224152 394.643982,368.119720 
	C395.361267,370.486603 395.131378,372.751251 395.516449,374.905975 
	C397.457458,385.765808 411.192566,390.702454 421.212158,384.224243 
	C429.265045,379.017609 430.398773,370.312103 423.115936,364.401398 
	C420.130951,361.978760 415.715576,361.121704 411.807220,360.104431 
	C409.293030,359.450073 406.517151,359.801025 403.858582,359.701416 
	C405.998596,358.477844 408.138611,357.254272 410.795593,356.227539 
	C411.876678,355.955200 412.440765,355.486053 413.004822,355.016907 
	C417.044617,354.667389 421.084442,354.317902 425.559082,353.994568 
z"/>
<path fill="#95B89A" opacity="1.000000" stroke="none" 
	d="
M403.505798,359.772888 
	C406.517151,359.801025 409.293030,359.450073 411.807220,360.104431 
	C415.715576,361.121704 420.130951,361.978760 423.115936,364.401398 
	C430.398773,370.312103 429.265045,379.017609 421.212158,384.224243 
	C411.192566,390.702454 397.457458,385.765808 395.516449,374.905975 
	C395.131378,372.751251 395.361267,370.486603 394.967804,368.050110 
	C397.469727,365.166534 400.311371,362.505432 403.505798,359.772888 
M403.809601,367.192505 
	C402.928467,369.108978 401.382812,371.001038 401.311340,372.947266 
	C401.182037,376.468506 406.766602,380.244080 410.915375,379.971802 
	C414.522797,379.735046 418.881439,375.516754 418.946075,372.199707 
	C419.004608,369.196259 414.958923,365.212402 411.076691,365.143555 
	C408.886566,365.104706 406.676025,366.214996 403.809601,367.192505 
z"/>
<path fill="#80A385" opacity="1.000000" stroke="none" 
	d="
M412.705139,355.013794 
	C412.440765,355.486053 411.876678,355.955200 411.148071,356.186157 
	C411.457520,355.635498 411.931488,355.323090 412.705139,355.013794 
z"/>
<path fill="#80A385" opacity="1.000000" stroke="none" 
	d="
M391.529175,371.849915 
	C391.438293,372.460205 391.045685,373.181488 390.311371,373.946777 
	C390.388885,373.314148 390.808136,372.637543 391.529175,371.849915 
z"/>
<path fill="#85A98A" opacity="1.000000" stroke="none" 
	d="
M304.032471,123.995178 
	C303.994324,123.254173 303.956177,122.513176 304.213745,121.156746 
	C304.672974,119.027344 304.836487,117.513367 305.335449,116.048386 
	C312.494751,124.625061 320.764465,129.398346 332.280365,128.137787 
	C340.875885,127.196915 348.990265,121.038452 351.515594,111.929649 
	C353.355072,105.294655 349.822357,97.929634 342.624207,93.049789 
	C340.940674,91.908485 339.529480,90.365410 338.336609,89.001701 
	C339.460663,88.643913 340.241119,88.291611 341.021606,87.939301 
	C343.053345,87.977417 345.085114,88.015541 347.611755,88.418060 
	C348.813629,89.146225 349.520599,89.509995 350.227600,89.873764 
	C352.280334,90.446365 354.333038,91.018967 356.728119,92.122208 
	C357.643921,93.840294 358.018433,95.187012 358.821838,96.190353 
	C366.087219,105.264496 364.954803,115.870644 359.385529,124.335411 
	C353.547852,133.208130 344.893341,136.717575 334.753082,138.343521 
	C322.456177,140.315277 312.102478,136.069397 306.247711,125.688568 
	C305.827972,124.944366 304.785431,124.551437 304.032471,123.995178 
z"/>
<path fill="#7FA183" opacity="1.000000" stroke="none" 
	d="
M304.045166,124.361839 
	C304.785431,124.551437 305.827972,124.944366 306.247711,125.688568 
	C312.102478,136.069397 322.456177,140.315277 334.753082,138.343521 
	C344.893341,136.717575 353.547852,133.208130 359.385529,124.335411 
	C364.954803,115.870644 366.087219,105.264496 358.821838,96.190353 
	C358.018433,95.187012 357.643921,93.840294 357.043976,92.288475 
	C374.089905,97.916313 380.805023,119.798477 369.691925,134.023148 
	C354.510376,153.455353 320.971893,152.765381 307.654449,132.319855 
	C306.140076,129.994919 305.241791,127.268669 304.045166,124.361839 
z"/>
<path fill="#8DB192" opacity="1.000000" stroke="none" 
	d="
M337.993011,89.007187 
	C339.529480,90.365410 340.940674,91.908485 342.624207,93.049789 
	C349.822357,97.929634 353.355072,105.294655 351.515594,111.929649 
	C348.990265,121.038452 340.875885,127.196915 332.280365,128.137787 
	C320.764465,129.398346 312.494751,124.625061 305.312958,115.745941 
	C304.620697,114.926498 304.286407,114.458481 303.952118,113.990463 
	C303.967377,113.247551 303.982635,112.504639 304.375336,111.329666 
	C305.804047,108.550896 306.855316,106.204193 307.906616,103.857498 
	C308.410889,102.983849 308.915161,102.110199 310.075439,101.182541 
	C310.928345,102.250839 311.119873,103.374115 311.323242,104.495247 
	C311.864227,107.477097 311.661377,110.890686 313.088867,113.361588 
	C318.225311,122.252380 330.133820,122.881187 337.744629,116.998070 
	C345.101440,111.311287 344.407562,102.435760 336.723724,97.136383 
	C332.502136,94.224815 327.923370,93.634201 322.998871,94.125801 
	C321.620789,94.263382 320.197540,93.948486 318.795013,93.841148 
	C324.575775,91.878769 330.356506,89.916389 336.669250,88.190994 
	C337.401978,88.707413 337.665924,88.900482 337.993011,89.007187 
z"/>
<path fill="#95B89A" opacity="1.000000" stroke="none" 
	d="
M318.447388,93.867584 
	C320.197540,93.948486 321.620789,94.263382 322.998871,94.125801 
	C327.923370,93.634201 332.502136,94.224815 336.723724,97.136383 
	C344.407562,102.435760 345.101440,111.311287 337.744629,116.998070 
	C330.133820,122.881187 318.225311,122.252380 313.088867,113.361588 
	C311.661377,110.890686 311.864227,107.477097 311.323242,104.495247 
	C311.119873,103.374115 310.928345,102.250839 310.368500,101.065018 
	C312.703644,98.632339 315.401703,96.263184 318.447388,93.867584 
M333.568726,103.343140 
	C332.362061,102.224983 331.229858,100.268501 329.934082,100.153381 
	C326.670197,99.863441 322.934692,99.578659 320.169464,100.912003 
	C318.430206,101.750618 316.757080,106.045128 317.465179,107.836067 
	C318.443359,110.310036 321.393677,112.725044 324.033966,113.667473 
	C329.154877,115.495346 333.997101,110.434219 333.568726,103.343140 
z"/>
<path fill="#7FA183" opacity="1.000000" stroke="none" 
	d="
M303.686035,114.257156 
	C304.286407,114.458481 304.620697,114.926498 304.977478,115.696953 
	C304.836487,117.513367 304.672974,119.027344 304.216675,120.785645 
	C303.755920,118.861259 303.587952,116.692551 303.686035,114.257156 
z"/>
<path fill="#7FA183" opacity="1.000000" stroke="none" 
	d="
M307.570587,103.954575 
	C306.855316,106.204193 305.804047,108.550896 304.409973,110.959656 
	C305.122925,108.698364 306.178741,106.375015 307.570587,103.954575 
z"/>
<path fill="#7FA183" opacity="1.000000" stroke="none" 
	d="
M338.336609,89.001701 
	C337.665924,88.900482 337.401978,88.707413 337.098511,88.201149 
	C338.189941,87.797699 339.384094,87.621078 340.799927,87.691879 
	C340.241119,88.291611 339.460663,88.643913 338.336609,89.001701 
z"/>
<path fill="#7FA183" opacity="1.000000" stroke="none" 
	d="
M350.128174,89.569000 
	C349.520599,89.509995 348.813629,89.146225 348.044495,88.466179 
	C348.664520,88.521347 349.346649,88.892799 350.128174,89.569000 
z"/>
<path fill="#55484E" opacity="1.000000" stroke="none" 
	d="
M199.534546,318.110352 
	C199.452621,318.838440 199.370697,319.566498 199.396545,320.648468 
	C199.332306,323.377655 199.160309,325.752930 198.759399,328.864563 
	C198.075546,335.426056 197.620621,341.251282 197.165680,347.076477 
	C194.066650,347.308624 190.967636,347.540802 187.434784,347.863831 
	C164.584122,347.873077 142.167206,347.807526 119.750580,347.688385 
	C117.106018,347.674347 114.463013,347.366608 111.395035,346.733093 
	C110.949234,344.167908 110.927681,342.064667 110.906128,339.961456 
	C110.906128,339.961456 111.118774,339.648529 111.462799,339.364746 
	C112.225327,338.397461 112.643822,337.713959 113.062317,337.030426 
	C113.728149,336.242950 114.393974,335.455475 115.100822,334.358154 
	C118.664497,329.894348 122.187157,325.740387 126.023071,321.130035 
	C128.586716,317.836639 130.837082,314.999603 133.395782,312.074982 
	C134.397003,310.963928 135.089905,309.940491 136.002167,308.661987 
	C138.283966,305.782928 140.346436,303.158905 142.700958,300.412323 
	C143.423309,299.617615 143.853592,298.945496 144.136902,298.180908 
	C143.989914,298.088440 144.286530,298.261566 144.582764,298.173828 
	C145.306427,297.417114 145.733871,296.748077 146.288269,295.985382 
	C146.415237,295.891693 146.505722,295.589355 146.797699,295.427063 
	C152.433517,288.533203 157.777374,281.801697 163.317932,274.910156 
	C163.740402,274.302094 163.966171,273.854004 164.530365,273.313843 
	C166.722641,270.908447 168.576477,268.595154 170.430298,266.281891 
	C170.098389,265.706360 169.766464,265.130798 169.434540,264.555267 
	C161.964005,265.058075 154.493469,265.560883 146.624588,265.988403 
	C144.148071,266.261353 142.069885,266.609528 139.688171,266.887787 
	C138.902847,267.150665 138.421082,267.483459 137.574860,267.828857 
	C134.775742,269.161377 132.341064,270.481323 129.556702,271.835022 
	C126.832474,275.917297 124.457924,279.965790 121.957535,284.324524 
	C121.844330,285.077026 121.856964,285.519226 121.649048,286.253906 
	C120.865372,290.587341 117.693840,290.611359 115.122665,289.769897 
	C113.976143,289.394653 113.240921,286.591400 113.026573,284.805206 
	C112.678169,281.901917 112.911369,278.928894 113.005707,275.554565 
	C113.119797,272.762573 113.127258,270.401337 113.345833,267.711975 
	C114.032326,264.240265 114.507706,261.096710 115.452621,257.969604 
	C117.905312,257.959412 119.888405,257.928314 121.871605,257.906891 
	C134.914398,257.765991 147.957199,257.627167 161.439117,257.645691 
	C166.251114,257.697937 170.623993,257.592194 174.996872,257.486420 
	C179.365250,257.590820 183.733627,257.695190 188.548981,257.658630 
	C191.361099,257.724091 193.726227,257.930481 196.639099,258.374878 
	C197.849426,259.051239 198.512009,259.489655 199.174591,259.928070 
	C199.129059,261.031464 199.083542,262.134857 198.799103,263.782135 
	C197.478271,265.893768 196.396332,267.461548 195.314392,269.029297 
	C194.910507,269.441956 194.506622,269.854584 193.719330,270.653625 
	C192.632019,272.033386 191.928101,273.026825 191.224152,274.020233 
	C190.821442,274.468750 190.418747,274.917297 189.638031,275.759308 
	C188.388550,277.525238 187.517090,278.897675 186.318848,280.383972 
	C185.537949,281.230774 185.083832,281.963776 184.729156,282.785095 
	C184.828583,282.873413 184.676819,282.654968 184.362518,282.729553 
	C183.576721,283.487366 183.105240,284.170593 182.392242,284.989075 
	C181.683243,285.875641 181.215744,286.626953 180.431549,287.515228 
	C179.605713,288.381836 179.096542,289.111511 178.354630,289.980438 
	C177.648712,290.855804 177.175537,291.591888 176.405975,292.453796 
	C175.498428,293.396851 174.887253,294.214050 174.006058,295.252441 
	C168.376648,302.163971 163.017227,308.854309 157.368469,315.668457 
	C156.627106,316.468292 156.175110,317.144287 155.503967,317.994690 
	C154.852859,318.773651 154.420883,319.378204 153.672134,320.081726 
	C152.548691,321.443787 151.742004,322.706818 150.762772,324.123474 
	C150.364960,324.489105 150.163803,324.721924 149.665619,325.068329 
	C148.235748,326.777466 147.126953,328.393799 146.018158,330.010132 
	C145.642548,330.377625 145.266937,330.745117 144.520966,331.477905 
	C143.711227,332.528931 143.271851,333.214600 142.832489,333.900238 
	C142.139282,334.688568 141.446091,335.476868 140.301804,336.694824 
	C140.168060,338.135468 140.511627,340.036560 140.798950,340.028107 
	C149.197174,339.780792 157.589798,339.343079 166.352844,338.972961 
	C167.451111,338.883484 168.179855,338.756897 169.287415,338.724487 
	C172.575424,337.633606 175.484604,336.448547 178.565063,335.256653 
	C178.736328,335.249786 179.026047,335.066528 179.351883,335.078827 
	C180.298370,334.532593 180.919006,333.974030 181.826660,333.265320 
	C183.593369,331.269226 185.073074,329.423279 186.864624,327.417114 
	C190.115005,323.256775 191.546997,318.867035 190.638000,313.871887 
	C190.762146,313.162598 190.886292,312.453339 191.348129,311.384094 
	C192.118195,310.656952 192.550583,310.289795 192.982956,309.922668 
	C194.387985,309.918732 195.793015,309.914825 197.797943,310.241821 
	C198.776733,313.085297 199.155640,315.597809 199.534546,318.110352 
z"/>
<path fill="#FBD9E9" opacity="1.000000" stroke="none" 
	d="
M133.087463,312.162567 
	C130.837082,314.999603 128.586716,317.836639 126.006760,320.800507 
	C120.643890,320.623383 115.523239,320.809540 110.592430,319.930634 
	C89.213852,316.119965 73.056389,304.866058 66.759903,283.673004 
	C62.635529,269.791046 66.115089,256.274445 76.403503,245.004196 
	C90.352028,229.724548 108.026230,223.136185 127.924751,225.323151 
	C147.657471,227.491898 165.201370,235.216171 174.427750,254.908783 
	C174.703415,255.497147 174.791779,256.173248 174.982178,257.147430 
	C170.623993,257.592194 166.251114,257.697937 161.424683,257.309875 
	C158.750793,249.771255 153.544220,244.920090 147.833435,241.064072 
	C130.961212,229.671631 107.575081,230.480560 90.673347,241.814819 
	C73.756332,253.159348 70.045731,276.567322 82.001900,291.983826 
	C90.220413,302.580963 101.371681,307.829590 114.478668,308.917358 
	C120.624695,309.427490 126.843819,309.056885 133.022064,309.469055 
	C133.038696,310.622650 133.063080,311.392609 133.087463,312.162567 
z"/>
<path fill="#C6AAB8" opacity="1.000000" stroke="none" 
	d="
M110.534996,340.008575 
	C110.927681,342.064667 110.949234,344.167908 110.986969,346.634705 
	C110.293648,346.986786 109.584145,346.975342 108.524185,346.948792 
	C108.837105,344.641022 109.500488,342.348358 110.534996,340.008575 
z"/>
<path fill="#C6AAB8" opacity="1.000000" stroke="none" 
	d="
M197.537216,347.009338 
	C197.620621,341.251282 198.075546,335.426056 198.807434,329.309814 
	C199.382706,331.720764 199.681030,334.422791 199.985474,337.562988 
	C199.297302,340.981537 198.603027,343.961853 197.537216,347.009338 
z"/>
<path fill="#F5D3E3" opacity="1.000000" stroke="none" 
	d="
M153.988892,319.982727 
	C154.420883,319.378204 154.852859,318.773651 155.882797,318.009033 
	C156.873123,317.080811 157.265472,316.312744 157.657822,315.544647 
	C163.017227,308.854309 168.376648,302.163971 174.377747,295.235687 
	C175.580399,294.107819 176.141388,293.217896 176.702362,292.327972 
	C177.175537,291.591888 177.648712,290.855804 178.761932,289.984192 
	C179.850723,289.025177 180.299484,288.201721 180.748245,287.378265 
	C181.215744,286.626953 181.683243,285.875641 182.771729,284.996643 
	C183.820755,284.130951 184.248779,283.392944 184.676819,282.654968 
	C184.676819,282.654968 184.828583,282.873413 185.138947,282.829407 
	C185.848083,281.946960 186.246841,281.108551 186.645599,280.270142 
	C187.517090,278.897675 188.388550,277.525238 189.556030,276.051636 
	C194.723877,276.345032 195.383591,279.104004 194.783768,283.460449 
	C192.847198,297.525787 185.334854,308.478241 174.939407,317.190887 
	C168.864151,322.282684 161.179733,325.484070 154.093384,329.302368 
	C153.211472,329.777557 151.555817,328.816742 150.111084,327.839417 
	C149.971237,326.430206 149.978973,325.702881 149.986710,324.975525 
	C150.163803,324.721924 150.364960,324.489105 151.124374,324.107483 
	C152.435318,322.619507 153.212112,321.301117 153.988892,319.982727 
z"/>
<path fill="#F0CEDF" opacity="1.000000" stroke="none" 
	d="
M168.908600,338.630310 
	C168.179855,338.756897 167.451111,338.883484 166.062927,338.683594 
	C161.603348,338.247650 157.803192,338.138092 154.003052,338.028534 
	C154.835693,337.120850 155.502228,335.732666 156.526306,335.378662 
	C168.806915,331.133026 179.420959,324.485291 187.733505,314.365082 
	C187.981171,314.063568 188.659851,314.116089 189.496155,314.369049 
	C188.754074,319.015472 187.653427,323.296387 186.552795,327.577301 
	C185.073074,329.423279 183.593369,331.269226 181.463074,333.161835 
	C180.217010,333.827850 179.621536,334.447205 179.026062,335.066528 
	C179.026047,335.066528 178.736328,335.249786 178.153778,335.190552 
	C174.683685,336.297638 171.796143,337.463959 168.908600,338.630310 
z"/>
<path fill="#CCAFBD" opacity="1.000000" stroke="none" 
	d="
M153.543015,338.035034 
	C157.803192,338.138092 161.603348,338.247650 165.693405,338.646515 
	C157.589798,339.343079 149.197174,339.780792 140.798950,340.028107 
	C140.511627,340.036560 140.168060,338.135468 140.200195,336.995728 
	C144.727448,337.258484 148.905212,337.649994 153.543015,338.035034 
z"/>
<path fill="#C6AAB8" opacity="1.000000" stroke="none" 
	d="
M186.864639,327.417114 
	C187.653427,323.296387 188.754074,319.015472 189.847321,314.351654 
	C189.839905,313.968750 190.234772,313.882080 190.436371,313.876984 
	C191.546997,318.867035 190.115005,323.256775 186.864639,327.417114 
z"/>
<path fill="#C6AAB8" opacity="1.000000" stroke="none" 
	d="
M199.857727,317.955811 
	C199.155640,315.597809 198.776733,313.085297 198.216370,310.190521 
	C198.498672,309.541229 198.962433,309.274170 199.713104,309.002625 
	C200.060318,311.932526 200.120605,314.866882 199.857727,317.955811 
z"/>
<path fill="#E9C8D8" opacity="1.000000" stroke="none" 
	d="
M195.645691,269.020020 
	C196.396332,267.461548 197.478271,265.893768 198.858994,264.192780 
	C198.097534,265.709961 197.037262,267.360352 195.645691,269.020020 
z"/>
<path fill="#CCAFBD" opacity="1.000000" stroke="none" 
	d="
M149.665619,325.068329 
	C149.978973,325.702881 149.971237,326.430206 149.945923,327.518433 
	C148.842606,328.586456 147.756851,329.293610 146.344635,330.005432 
	C147.126953,328.393799 148.235748,326.777466 149.665619,325.068329 
z"/>
<path fill="#E9C8D8" opacity="1.000000" stroke="none" 
	d="
M199.406860,259.712280 
	C198.512009,259.489655 197.849426,259.051239 197.083176,258.329895 
	C197.764862,257.832123 198.550217,257.617279 199.335571,257.402466 
	C199.436752,258.100464 199.537949,258.798462 199.406860,259.712280 
z"/>
<path fill="#C6AAB8" opacity="1.000000" stroke="none" 
	d="
M192.811401,309.671631 
	C192.550583,310.289795 192.118195,310.656952 191.384964,311.024963 
	C190.906372,310.539520 190.728622,310.053253 190.550873,309.566986 
	C191.247192,309.518219 191.943527,309.469421 192.811401,309.671631 
z"/>
<path fill="#E9C8D8" opacity="1.000000" stroke="none" 
	d="
M191.587021,274.010315 
	C191.928101,273.026825 192.632019,272.033386 193.630707,270.930664 
	C193.266922,271.881012 192.608398,272.940674 191.587021,274.010315 
z"/>
<path fill="#CCAFBD" opacity="1.000000" stroke="none" 
	d="
M143.196198,333.890625 
	C143.271851,333.214600 143.711227,332.528931 144.457336,331.744232 
	C144.362686,332.390442 143.961288,333.135712 143.196198,333.890625 
z"/>
<path fill="#C6AAB8" opacity="1.000000" stroke="none" 
	d="
M112.711899,337.055298 
	C112.643822,337.713959 112.225327,338.397461 111.501389,339.179565 
	C111.584465,338.545502 111.972977,337.812866 112.711899,337.055298 
z"/>
<path fill="#9CBEA1" opacity="1.000000" stroke="none" 
	d="
M404.142151,367.000092 
	C406.676025,366.214996 408.886566,365.104706 411.076691,365.143555 
	C414.958923,365.212402 419.004608,369.196259 418.946075,372.199707 
	C418.881439,375.516754 414.522797,379.735046 410.915375,379.971802 
	C406.766602,380.244080 401.182037,376.468506 401.311340,372.947266 
	C401.382812,371.001038 402.928467,369.108978 404.142151,367.000092 
z"/>
<path fill="#9CBEA1" opacity="1.000000" stroke="none" 
	d="
M333.716675,103.710091 
	C333.997101,110.434219 329.154877,115.495346 324.033966,113.667473 
	C321.393677,112.725044 318.443359,110.310036 317.465179,107.836067 
	C316.757080,106.045128 318.430206,101.750618 320.169464,100.912003 
	C322.934692,99.578659 326.670197,99.863441 329.934082,100.153381 
	C331.229858,100.268501 332.362061,102.224983 333.716675,103.710091 
z"/>
<path fill="#FEDDED" opacity="1.000000" stroke="none" 
	d="
M133.029816,309.085388 
	C126.843819,309.056885 120.624695,309.427490 114.478668,308.917358 
	C101.371681,307.829590 90.220413,302.580963 82.001900,291.983826 
	C70.045731,276.567322 73.756332,253.159348 90.673347,241.814819 
	C107.575081,230.480560 130.961212,229.671631 147.833435,241.064072 
	C153.544220,244.920090 158.750793,249.771255 160.985565,257.151886 
	C147.957199,257.627167 134.914398,257.765991 121.871605,257.906891 
	C119.888405,257.928314 117.905312,257.959412 115.229866,257.711121 
	C109.873055,260.415588 111.997192,264.293121 113.134720,268.040100 
	C113.127258,270.401337 113.119797,272.762573 112.629898,275.643433 
	C111.443413,279.270966 110.305565,282.363220 110.192413,285.492493 
	C110.120560,287.479614 111.205231,290.940674 112.414436,291.253326 
	C115.207291,291.975464 118.439903,291.408478 121.369934,290.782776 
	C121.857475,290.678650 121.718857,287.642609 121.869598,285.961456 
	C121.856964,285.519226 121.844330,285.077026 122.315201,284.282288 
	C125.167931,279.886963 127.537155,275.844086 129.906387,271.801239 
	C132.341064,270.481323 134.775742,269.161377 137.723145,268.094421 
	C138.821152,267.884155 139.406433,267.420929 139.991714,266.957703 
	C142.069885,266.609528 144.148071,266.261353 146.914185,266.285889 
	C153.529587,266.900879 159.457077,267.143127 165.514893,267.390686 
	C164.948151,269.967590 164.570053,271.686768 164.191940,273.405945 
	C163.966171,273.854004 163.740402,274.302094 162.962021,274.905823 
	C158.363434,279.562439 154.174469,283.946014 150.338303,288.619202 
	C148.684555,290.633728 147.761002,293.247711 146.505737,295.589355 
	C146.505722,295.589355 146.415237,295.891693 145.929276,295.987915 
	C145.057724,296.809967 144.672119,297.535767 144.286530,298.261566 
	C144.286530,298.261566 143.989914,298.088440 143.753754,298.146454 
	C143.148041,298.981293 142.778473,299.758087 142.408920,300.534912 
	C140.346436,303.158905 138.283966,305.782928 135.657593,308.652161 
	C134.405716,308.960052 133.717773,309.022705 133.029816,309.085388 
z"/>
<path fill="#E9C8D8" opacity="1.000000" stroke="none" 
	d="
M121.649048,286.253906 
	C121.718857,287.642609 121.857475,290.678650 121.369934,290.782776 
	C118.439903,291.408478 115.207291,291.975464 112.414436,291.253326 
	C111.205231,290.940674 110.120560,287.479614 110.192413,285.492493 
	C110.305565,282.363220 111.443413,279.270966 112.523270,276.074158 
	C112.911369,278.928894 112.678169,281.901917 113.026573,284.805206 
	C113.240921,286.591400 113.976143,289.394653 115.122665,289.769897 
	C117.693840,290.611359 120.865372,290.587341 121.649048,286.253906 
z"/>
<path fill="#E9C8D8" opacity="1.000000" stroke="none" 
	d="
M164.530365,273.313843 
	C164.570053,271.686768 164.948151,269.967590 165.514893,267.390686 
	C159.457077,267.143127 153.529587,266.900879 147.312531,266.361145 
	C154.493469,265.560883 161.964005,265.058075 169.434540,264.555267 
	C169.766464,265.130798 170.098389,265.706360 170.430298,266.281891 
	C168.576477,268.595154 166.722641,270.908447 164.530365,273.313843 
z"/>
<path fill="#D7B9C8" opacity="1.000000" stroke="none" 
	d="
M146.797699,295.427063 
	C147.761002,293.247711 148.684555,290.633728 150.338303,288.619202 
	C154.174469,283.946014 158.363434,279.562439 162.765320,275.065857 
	C157.777374,281.801697 152.433517,288.533203 146.797699,295.427063 
z"/>
<path fill="#E9C8D8" opacity="1.000000" stroke="none" 
	d="
M129.556702,271.835022 
	C127.537155,275.844086 125.167931,279.886963 122.441040,283.972046 
	C124.457924,279.965790 126.832474,275.917297 129.556702,271.835022 
z"/>
<path fill="#E9C8D8" opacity="1.000000" stroke="none" 
	d="
M113.345833,267.711975 
	C111.997192,264.293121 109.873055,260.415588 114.760330,257.694672 
	C114.507706,261.096710 114.032326,264.240265 113.345833,267.711975 
z"/>
<path fill="#CCAFBD" opacity="1.000000" stroke="none" 
	d="
M169.287415,338.724487 
	C171.796143,337.463959 174.683685,336.297638 177.982513,335.197388 
	C175.484604,336.448547 172.575424,337.633606 169.287415,338.724487 
z"/>
<path fill="#CCAFBD" opacity="1.000000" stroke="none" 
	d="
M153.672119,320.081726 
	C153.212112,321.301117 152.435318,322.619507 151.296936,323.953888 
	C151.742004,322.706818 152.548691,321.443787 153.672119,320.081726 
z"/>
<path fill="#D7B9C8" opacity="1.000000" stroke="none" 
	d="
M133.022064,309.469025 
	C133.717773,309.022705 134.405716,308.960052 135.438248,308.907196 
	C135.089905,309.940491 134.397003,310.963928 133.395782,312.074982 
	C133.063080,311.392609 133.038696,310.622650 133.022064,309.469025 
z"/>
<path fill="#E9C8D8" opacity="1.000000" stroke="none" 
	d="
M176.405991,292.453796 
	C176.141388,293.217896 175.580399,294.107819 174.647736,295.014496 
	C174.887253,294.214050 175.498428,293.396851 176.405991,292.453796 
z"/>
<path fill="#E9C8D8" opacity="1.000000" stroke="none" 
	d="
M139.688171,266.887787 
	C139.406433,267.420929 138.821152,267.884155 138.087601,268.081818 
	C138.421082,267.483459 138.902847,267.150665 139.688171,266.887787 
z"/>
<path fill="#E9C8D8" opacity="1.000000" stroke="none" 
	d="
M180.431549,287.515228 
	C180.299484,288.201721 179.850723,289.025177 178.994659,289.844910 
	C179.096542,289.111511 179.605713,288.381836 180.431549,287.515228 
z"/>
<path fill="#D7B9C8" opacity="1.000000" stroke="none" 
	d="
M144.582764,298.173828 
	C144.672119,297.535767 145.057724,296.809967 145.802307,296.081604 
	C145.733871,296.748077 145.306427,297.417114 144.582764,298.173828 
z"/>
<path fill="#D7B9C8" opacity="1.000000" stroke="none" 
	d="
M142.700958,300.412323 
	C142.778473,299.758087 143.148041,298.981293 143.900726,298.238922 
	C143.853592,298.945496 143.423309,299.617615 142.700958,300.412323 
z"/>
<path fill="#E9C8D8" opacity="1.000000" stroke="none" 
	d="
M184.362518,282.729553 
	C184.248779,283.392944 183.820755,284.130951 183.013245,284.861389 
	C183.105240,284.170593 183.576721,283.487366 184.362518,282.729553 
z"/>
<path fill="#E9C8D8" opacity="1.000000" stroke="none" 
	d="
M186.318832,280.383972 
	C186.246841,281.108551 185.848083,281.946960 185.039520,282.741089 
	C185.083832,281.963776 185.537949,281.230774 186.318832,280.383972 
z"/>
<path fill="#CCAFBD" opacity="1.000000" stroke="none" 
	d="
M157.368469,315.668457 
	C157.265472,316.312744 156.873123,317.080811 156.101929,317.834595 
	C156.175110,317.144287 156.627106,316.468292 157.368469,315.668457 
z"/>
<path fill="#CCAFBD" opacity="1.000000" stroke="none" 
	d="
M179.351898,335.078827 
	C179.621536,334.447205 180.217010,333.827850 181.176086,333.312012 
	C180.919006,333.974030 180.298370,334.532593 179.351898,335.078827 
z"/>
</svg>